<svg width="1200" height="800" viewBox="0 0 1200 800" fill="none" xmlns="http://www.w3.org/2000/svg">
  <defs>
    <linearGradient id="bg" x1="0%" y1="0%" x2="100%" y2="100%">
      <stop offset="0%" style="stop-color:#667eea;stop-opacity:0.8" />
      <stop offset="100%" style="stop-color:#764ba2;stop-opacity:0.8" />
    </linearGradient>
  </defs>
  
  <rect width="1200" height="800" fill="url(#bg)"/>
  
  <!-- Mountains -->
  <path d="M0 600 L200 300 L400 450 L600 200 L800 350 L1000 250 L1200 400 L1200 800 L0 800 Z" fill="rgba(255,255,255,0.1)"/>
  <path d="M0 650 L150 400 L350 500 L550 300 L750 450 L950 350 L1200 500 L1200 800 L0 800 Z" fill="rgba(255,255,255,0.08)"/>
  
  <!-- Clouds -->
  <ellipse cx="200" cy="150" rx="60" ry="30" fill="rgba(255,255,255,0.2)"/>
  <ellipse cx="180" cy="140" rx="40" ry="20" fill="rgba(255,255,255,0.2)"/>
  <ellipse cx="220" cy="140" rx="35" ry="18" fill="rgba(255,255,255,0.2)"/>
  
  <ellipse cx="800" cy="100" rx="70" ry="35" fill="rgba(255,255,255,0.15)"/>
  <ellipse cx="780" cy="90" rx="45" ry="22" fill="rgba(255,255,255,0.15)"/>
  <ellipse cx="820" cy="90" rx="40" ry="20" fill="rgba(255,255,255,0.15)"/>
  
  <!-- Center content area -->
  <rect x="300" y="300" width="600" height="200" rx="20" fill="rgba(255,255,255,0.1)"/>
  <text x="600" y="380" font-family="Arial, sans-serif" font-size="36" fill="white" text-anchor="middle" font-weight="700">Tourism Explorer</text>
  <text x="600" y="420" font-family="Arial, sans-serif" font-size="18" fill="rgba(255,255,255,0.9)" text-anchor="middle">Discover Your Next Adventure</text>
</svg>
